# WaveFront *.obj file (generated by Autodesk ATF)

mtllib 307ecb1b-4884-4cc8-a64b-91a9104cd74d.mtl

g Body2

v -2.639320 -8.122992 11.180340
v -8.541020 0.000000 11.180340
v -18.090170 -13.143278 11.180340
v -2.639320 8.122992 11.180340
v -18.090170 13.143278 11.180340
v 6.909830 5.020285 11.180340
v 6.909830 21.266270 11.180340
v 6.909830 -5.020285 11.180340
v 22.360680 0.000000 11.180340
v 6.909830 -21.266270 11.180340
v -6.909830 5.020285 -11.180340
v 2.639320 8.122992 -11.180340
v 0.000000 0.000000 -25.000000
v -4.270510 13.143278 2.639320
v -11.180340 8.122992 -2.639320
v -13.819660 0.000000 2.639320
v -11.180340 -8.122992 -2.639320
v -6.909830 -5.020285 -11.180340
v 8.541020 0.000000 -11.180340
v 11.180340 8.122992 2.639320
v 4.270510 13.143278 -2.639320
v 2.639320 -8.122992 -11.180340
v 4.270510 -13.143278 -2.639320
v 11.180340 -8.122992 2.639320
v -4.270510 -13.143278 2.639320
v 13.819660 0.000000 -2.639320
v -22.360680 0.000000 -11.180340
v -0.000000 0.000000 25.000000
v 18.090170 13.143278 -11.180340
v -6.909830 21.266270 -11.180340
v 18.090170 -13.143278 -11.180340
v -6.909830 -21.266270 -11.180340
vt -0.477458 -0.812299 0.000000
vt -1.067627 0.000000 0.000000
vt -2.022542 -1.314328 0.000000
vt -0.477458 0.812299 0.000000
vt -2.022542 1.314328 0.000000
vt 0.477458 0.502029 0.000000
vt 0.477458 2.126627 0.000000
vt 0.477458 -0.502029 0.000000
vt 2.022542 0.000000 0.000000
vt -0.477458 -0.812299 0.000000
vt 0.477458 -2.126627 0.000000
vt -1.816356 2.500000 0.000000
vt -0.812299 2.500000 0.000000
vt -1.314328 4.045085 0.000000
vt -1.314328 0.954915 0.000000
vt -2.126627 1.545085 0.000000
vt -2.628656 0.000000 0.000000
vt -1.314328 0.954915 0.000000
vt -2.126627 1.545085 0.000000
vt -2.628656 0.000000 0.000000
vt -1.816356 2.500000 0.000000
vt -0.812299 2.500000 0.000000
vt -1.314328 4.045085 0.000000
vt -0.502029 1.545085 0.000000
vt -1.314328 0.954915 0.000000
vt 0.000000 0.000000 0.000000
vt -1.816356 2.500000 0.000000
vt -0.812299 2.500000 0.000000
vt -1.314328 4.045085 0.000000
vt -1.314328 0.954915 0.000000
vt -2.126627 1.545085 0.000000
vt -2.628656 0.000000 0.000000
vt -1.816356 2.500000 0.000000
vt -0.812299 2.500000 0.000000
vt -1.314328 4.045085 0.000000
vt -0.502029 1.545085 0.000000
vt -1.314328 0.954915 0.000000
vt -0.000000 0.000000 0.000000
vt -1.314328 0.954915 0.000000
vt -2.126627 1.545085 0.000000
vt -2.628656 0.000000 0.000000
vt -1.816356 2.500000 0.000000
vt -0.812299 2.500000 0.000000
vt -1.314328 4.045085 0.000000
vt -0.502029 1.545085 0.000000
vt -1.314328 0.954915 0.000000
vt 0.000000 0.000000 0.000000
vt 0.000000 0.000000 0.000000
vt -1.314328 0.954915 0.000000
vt -1.624598 0.000000 0.000000
vt 0.000000 -0.000000 0.000000
vt -1.314328 0.954915 0.000000
vt -1.624598 0.000000 0.000000
vt 0.000000 0.000000 0.000000
vt -1.314328 0.954915 0.000000
vt -1.624598 0.000000 0.000000
vt 0.000000 0.000000 0.000000
vt -1.314328 0.954915 0.000000
vt -1.624598 -0.000000 0.000000
vt -0.310271 0.954915 0.000000
vt -1.624598 0.000000 0.000000
vt 0.000000 0.000000 0.000000
vt -0.310271 0.954915 0.000000
vt -1.624598 0.000000 0.000000
vt 0.000000 0.000000 0.000000
vt -0.310271 0.954915 0.000000
vt -1.624598 0.000000 0.000000
vt 0.000000 0.000000 0.000000
vt -0.310271 0.954915 0.000000
vt -1.624598 -0.000000 0.000000
vt 0.000000 0.000000 0.000000
vt -0.310271 0.954915 0.000000
vt -1.624598 0.000000 0.000000
vt 0.000000 -0.000000 0.000000
vt 0.000000 0.000000 0.000000
vt -1.314328 0.954915 0.000000
vt -1.624598 -0.000000 0.000000
vt -0.502029 1.545085 0.000000
vt -1.314328 0.954915 0.000000
vt 0.000000 0.000000 0.000000
vt -0.502029 1.545085 0.000000
vt -1.314328 0.954915 0.000000
vt 0.000000 -0.000000 0.000000
vt -1.314328 0.954915 0.000000
vt -2.126627 1.545085 0.000000
vt -2.628656 0.000000 0.000000
vt -0.502029 1.545085 0.000000
vt -1.314328 0.954915 0.000000
vt -0.000000 0.000000 0.000000
vt -1.816356 2.500000 0.000000
vt -0.812299 2.500000 0.000000
vt -1.314328 4.045085 0.000000
vt -1.314328 0.954915 0.000000
vt -2.126627 1.545085 0.000000
vt -2.628656 -0.000000 0.000000
vt -1.816356 2.500000 0.000000
vt -0.812299 2.500000 0.000000
vt -1.314328 4.045085 0.000000
vt -0.502029 1.545085 0.000000
vt -1.314328 0.954915 0.000000
vt 0.000000 0.000000 0.000000
vt -1.314328 0.954915 0.000000
vt -2.126627 1.545085 0.000000
vt -2.628656 -0.000000 0.000000
vt -0.502029 1.545085 0.000000
vt -1.314328 0.954915 0.000000
vt 0.000000 0.000000 0.000000
vt -0.502029 1.545085 0.000000
vt -1.314328 0.954915 0.000000
vt 0.000000 0.000000 0.000000
vt -1.816356 2.500000 0.000000
vt -0.812299 2.500000 0.000000
vt -1.314328 4.045085 0.000000
vt -0.477458 -0.812299 0.000000
vt -1.067627 0.000000 0.000000
vt -2.022542 -1.314328 0.000000
vt -0.477458 0.812299 0.000000
vt -2.022542 1.314328 0.000000
vt 0.477458 0.502029 0.000000
vt 0.477458 2.126627 0.000000
vt 0.477458 -0.502029 0.000000
vt 2.022542 0.000000 0.000000
vt -0.477458 -0.812299 0.000000
vt 0.477458 -2.126627 0.000000
vt -1.314328 0.954915 0.000000
vt -2.126627 1.545085 0.000000
vt -2.628656 0.000000 0.000000
vt -0.502029 1.545085 0.000000
vt -1.314328 0.954915 0.000000
vt 0.000000 0.000000 0.000000
vt 0.000000 0.000000 0.000000
vt -1.314328 0.954915 0.000000
vt -1.624598 -0.000000 0.000000
vt 0.000000 0.000000 0.000000
vt -1.314328 0.954915 0.000000
vt -1.624598 -0.000000 0.000000
vt 0.000000 0.000000 0.000000
vt -1.314328 0.954915 0.000000
vt -1.624598 0.000000 0.000000
vt -0.000000 0.000000 0.000000
vt -1.314328 0.954915 0.000000
vt -1.624598 -0.000000 0.000000
vt -0.310271 0.954915 0.000000
vt -1.624598 -0.000000 0.000000
vt -0.000000 0.000000 0.000000
vt -0.310271 0.954915 0.000000
vt -1.624598 0.000000 0.000000
vt 0.000000 0.000000 0.000000
vt -0.310271 0.954915 0.000000
vt -1.624598 0.000000 0.000000
vt 0.000000 0.000000 0.000000
vt -0.310271 0.954915 0.000000
vt -1.624598 -0.000000 0.000000
vt 0.000000 0.000000 0.000000
vt -0.310271 0.954915 0.000000
vt -1.624598 0.000000 0.000000
vt 0.000000 0.000000 0.000000
vt 0.000000 0.000000 0.000000
vt -1.314328 0.954915 0.000000
vt -1.624598 -0.000000 0.000000
vt -1.816356 2.500000 0.000000
vt -0.812299 2.500000 0.000000
vt -1.314328 4.045085 0.000000
vt -1.314328 0.954915 0.000000
vt -2.126627 1.545085 0.000000
vt -2.628656 -0.000000 0.000000
vt -1.816356 2.500000 0.000000
vt -0.812299 2.500000 0.000000
vt -1.314328 4.045085 0.000000
vt -1.314328 0.954915 0.000000
vt -2.126627 1.545085 0.000000
vt -2.628656 0.000000 0.000000
vn 0.000000 0.000000 0.100000
vn 0.000000 0.000000 0.100000
vn 0.000000 0.000000 0.100000
vn 0.000000 0.000000 0.100000
vn 0.000000 0.000000 0.100000
vn 0.000000 0.000000 0.100000
vn 0.000000 0.000000 0.100000
vn 0.000000 0.000000 0.100000
vn 0.000000 0.000000 0.100000
vn 0.000000 0.000000 0.100000
vn -0.027639 0.085065 -0.044721
vn -0.027639 0.085065 -0.044721
vn -0.027639 0.085065 -0.044721
vn -0.027639 0.085065 -0.044721
vn -0.027639 0.085065 -0.044721
vn -0.027639 0.085065 -0.044721
vn -0.089443 0.000000 -0.044721
vn -0.089443 0.000000 -0.044721
vn -0.089443 0.000000 -0.044721
vn -0.089443 0.000000 -0.044721
vn -0.089443 0.000000 -0.044721
vn -0.089443 0.000000 -0.044721
vn -0.089443 0.000000 -0.044721
vn -0.089443 0.000000 -0.044721
vn 0.072361 0.052573 -0.044721
vn 0.072361 0.052573 -0.044721
vn 0.072361 0.052573 -0.044721
vn 0.072361 0.052573 -0.044721
vn 0.072361 0.052573 -0.044721
vn 0.072361 0.052573 -0.044721
vn 0.072361 -0.052573 -0.044721
vn 0.072361 -0.052573 -0.044721
vn 0.072361 -0.052573 -0.044721
vn 0.072361 -0.052573 -0.044721
vn 0.072361 -0.052573 -0.044721
vn 0.072361 -0.052573 -0.044721
vn -0.027639 -0.085065 -0.044721
vn -0.027639 -0.085065 -0.044721
vn -0.027639 -0.085065 -0.044721
vn -0.027639 -0.085065 -0.044721
vn -0.027639 -0.085065 -0.044721
vn -0.027639 -0.085065 -0.044721
vn -0.027639 -0.085065 -0.044721
vn -0.027639 -0.085065 -0.044721
vn -0.072361 0.052573 0.044721
vn -0.072361 0.052573 0.044721
vn -0.072361 0.052573 0.044721
vn -0.072361 -0.052573 0.044721
vn -0.072361 -0.052573 0.044721
vn -0.072361 -0.052573 0.044721
vn 0.027639 -0.085065 0.044721
vn 0.027639 -0.085065 0.044721
vn 0.027639 -0.085065 0.044721
vn 0.027639 0.085065 0.044721
vn 0.027639 0.085065 0.044721
vn 0.027639 0.085065 0.044721
vn 0.027639 0.085065 0.044721
vn 0.027639 0.085065 0.044721
vn 0.027639 0.085065 0.044721
vn -0.072361 0.052573 0.044721
vn -0.072361 0.052573 0.044721
vn -0.072361 0.052573 0.044721
vn 0.027639 -0.085065 0.044721
vn 0.027639 -0.085065 0.044721
vn 0.027639 -0.085065 0.044721
vn 0.089443 -0.000000 0.044721
vn 0.089443 -0.000000 0.044721
vn 0.089443 -0.000000 0.044721
vn -0.072361 -0.052573 0.044721
vn -0.072361 -0.052573 0.044721
vn -0.072361 -0.052573 0.044721
vn 0.089443 -0.000000 0.044721
vn 0.089443 -0.000000 0.044721
vn 0.089443 -0.000000 0.044721
vn -0.027639 0.085065 -0.044721
vn -0.027639 0.085065 -0.044721
vn 0.072361 0.052573 -0.044721
vn 0.072361 0.052573 -0.044721
vn 0.072361 -0.052573 -0.044721
vn 0.072361 -0.052573 -0.044721
vn -0.072361 0.052573 0.044721
vn -0.072361 0.052573 0.044721
vn -0.072361 0.052573 0.044721
vn 0.027639 0.085065 0.044721
vn 0.027639 0.085065 0.044721
vn 0.027639 0.085065 0.044721
vn 0.027639 0.085065 0.044721
vn 0.089443 0.000000 0.044721
vn 0.089443 0.000000 0.044721
vn 0.089443 0.000000 0.044721
vn -0.072361 -0.052573 0.044721
vn -0.072361 -0.052573 0.044721
vn -0.072361 -0.052573 0.044721
vn 0.000000 0.000000 -0.100000
vn 0.000000 0.000000 -0.100000
vn 0.000000 0.000000 -0.100000
vn 0.000000 0.000000 -0.100000
vn 0.000000 0.000000 -0.100000
vn 0.000000 0.000000 -0.100000
vn 0.000000 0.000000 -0.100000
vn 0.000000 0.000000 -0.100000
vn 0.000000 0.000000 -0.100000
vn 0.000000 0.000000 -0.100000
vn 0.027639 -0.085065 0.044721
vn 0.027639 -0.085065 0.044721
vn 0.027639 -0.085065 0.044721
vn 0.072361 0.052573 -0.044721
vn 0.072361 -0.052573 -0.044721
vn -0.027639 -0.085065 -0.044721
vn -0.027639 0.085065 -0.044721
vn -0.027639 0.085065 -0.044721
vn 0.072361 0.052573 -0.044721
vn -0.027639 -0.085065 -0.044721
vn -0.089443 -0.000000 -0.044721
vn 0.072361 -0.052573 -0.044721
vn -0.089443 -0.000000 -0.044721
vn 0.089443 0.000000 0.044721
vn -0.072361 0.052573 0.044721
vn 0.027639 -0.085065 0.044721
vn -0.072361 -0.052573 0.044721
usemtl Steel_-_Satin
f 1/1/1 2/2/2 3/3/3
f 2/2/2 4/4/4 5/5/5
f 4/4/4 6/6/6 7/7/7
f 6/6/6 8/8/8 9/9/9
f 8/8/8 1/10/1 10/11/10
f 11/12/11 12/13/12 13/14/13
f 14/15/14 15/16/15 5/17/16
f 16/18/17 17/19/18 3/20/19
f 18/21/20 11/22/21 13/23/22
f 15/24/23 16/25/17 5/26/24
f 12/27/25 19/28/26 13/29/27
f 20/30/28 21/31/29 7/32/30
f 19/33/31 22/34/32 13/35/33
f 23/36/34 24/37/35 10/38/36
f 25/39/37 23/40/38 10/41/39
f 22/42/40 18/43/41 13/44/42
f 17/45/43 25/46/37 3/47/44
f 7/48/45 14/49/46 4/50/47
f 5/51/48 16/52/49 2/53/50
f 3/54/51 25/55/52 1/56/53
f 9/57/54 20/58/55 6/59/56
f 14/60/57 5/61/58 4/62/59
f 16/63/60 3/64/61 2/65/62
f 24/66/63 9/67/64 8/68/65
f 20/69/66 7/70/67 6/71/68
f 25/72/69 10/73/70 1/74/71
f 10/75/72 24/76/73 8/77/74
f 21/78/75 14/79/14 7/80/76
f 26/81/77 20/82/28 9/83/78
f 24/84/35 26/85/79 9/86/80
f 16/87/60 15/88/81 27/89/82
f 4/90/47 2/91/62 28/92/83
f 21/93/84 20/94/55 29/95/85
f 6/96/56 4/97/59 28/98/86
f 14/99/57 21/100/84 30/101/87
f 26/102/88 24/103/73 31/104/89
f 20/105/66 26/106/88 29/107/90
f 25/108/69 17/109/91 32/110/92
f 2/111/50 1/112/71 28/113/93
f 22/114/94 19/115/95 31/116/96
f 19/115/95 12/117/97 29/118/98
f 12/117/97 11/119/99 30/120/100
f 11/119/99 18/121/101 27/122/102
f 18/121/101 22/123/94 32/124/103
f 23/125/104 25/126/52 32/127/105
f 24/128/63 23/129/104 31/130/106
f 30/131/107 21/132/29 12/133/25
f 29/134/108 26/135/79 19/136/31
f 31/137/109 23/138/38 22/139/40
f 27/140/110 15/141/15 11/142/11
f 21/143/75 29/144/111 12/145/12
f 26/146/77 31/147/112 19/148/26
f 17/149/43 27/150/113 18/151/41
f 15/152/23 30/153/114 11/154/21
f 23/155/34 32/156/115 22/157/32
f 32/158/116 17/159/18 18/160/20
f 8/161/74 6/162/68 28/163/117
f 15/164/81 14/165/46 30/166/118
f 1/167/53 8/168/65 28/169/119
f 17/170/91 16/171/49 27/172/120
# 32 vertices
# 172 texture params
# 120 normals
# 60 facets

# 1 groups
